<svg width="1440" height="1024" viewBox="0 0 1440 1024" fill="none" xmlns="http://www.w3.org/2000/svg">
<rect width="1440" height="1024" fill="#2F4E6B"/>
<rect x="152.437" y="176.437" width="531.126" height="335.785" rx="57.1841" fill="#E6EBEE" stroke="#1F2428" stroke-width="22.8737"/>
<circle cx="329.25" cy="305.673" r="63.8175" fill="#1F2428"/>
<ellipse cx="363.79" cy="321.913" rx="29.2783" ry="28.8208" fill="#E6EBEE"/>
<circle cx="509.495" cy="305.673" r="63.8175" fill="#1F2428"/>
<ellipse cx="544.034" cy="321.913" rx="29.2783" ry="28.8208" fill="#E6EBEE"/>
<path d="M368.879 427.49V412.851H387.178V427.49H368.879ZM409.136 427.49V412.851H427.435V427.49H409.136ZM449.394 427.49V412.851H467.693V427.49H449.394Z" fill="#1F2428"/>
<rect x="846.476" y="413.476" width="440.049" height="278.205" rx="47.3782" fill="#1F2428" stroke="#E6EBEE" stroke-width="18.9513"/>
<circle cx="992.969" cy="520.55" r="52.8741" fill="#E6EBEE"/>
<ellipse cx="968.901" cy="510.127" rx="24.2576" ry="23.8786" fill="#1F2428"/>
<circle cx="1142.31" cy="520.55" r="52.8741" fill="#E6EBEE"/>
<ellipse cx="1119" cy="510.127" rx="24.2576" ry="23.8786" fill="#1F2428"/>
<path d="M1025.8 621.424V609.295H1040.96V621.424H1025.8ZM1059.16 621.424V609.295H1074.32V621.424H1059.16ZM1092.51 621.424V609.295H1107.67V621.424H1092.51Z" fill="#E6EBEE"/>
</svg>
