<svg width="398" height="93" viewBox="0 0 398 93" fill="none" xmlns="http://www.w3.org/2000/svg">
<rect x="1" y="1" width="396" height="91" stroke="#1F2428" stroke-width="2"/>
<rect x="2.5" y="2.5" width="393" height="88" rx="37.5" stroke="#E6EBEE" stroke-width="5"/>
<path d="M85.2802 63V35H100.8C103.2 35 105.2 35.28 106.8 35.84C108.427 36.3733 109.653 37.16 110.48 38.2C111.307 39.24 111.72 40.5067 111.72 42C111.72 43.4933 111.227 44.7867 110.24 45.88C109.28 46.9467 107.853 47.7067 105.96 48.16L106.2 47.4C107.4 47.6667 108.533 48.0933 109.6 48.68C110.667 49.2667 111.533 50.0533 112.2 51.04C112.867 52.0267 113.2 53.24 113.2 54.68C113.2 56.3333 112.853 57.7067 112.16 58.8C111.493 59.8667 110.6 60.7067 109.48 61.32C108.36 61.9333 107.133 62.3733 105.8 62.64C104.467 62.88 103.147 63 101.84 63H85.2802ZM90.3602 58.32H102C103.173 58.32 104.2 58.1867 105.08 57.92C105.987 57.6533 106.693 57.24 107.2 56.68C107.707 56.0933 107.96 55.3733 107.96 54.52C107.96 53.5333 107.64 52.7733 107 52.24C106.36 51.7067 105.56 51.3333 104.6 51.12C103.64 50.88 102.707 50.76 101.8 50.76H90.3602V58.32ZM90.3602 46.24H101.36C102.293 46.24 103.147 46.1067 103.92 45.84C104.693 45.5733 105.307 45.1867 105.76 44.68C106.213 44.1733 106.44 43.5733 106.44 42.88C106.44 41.7333 105.907 40.92 104.84 40.44C103.8 39.9333 102.507 39.68 100.96 39.68H90.3602V46.24ZM139.278 63.24C136.425 63.24 133.918 62.6533 131.758 61.48C129.625 60.28 127.958 58.6533 126.758 56.6C125.558 54.5467 124.958 52.2133 124.958 49.6V34.96H130.198V49.44C130.198 51.1733 130.598 52.72 131.398 54.08C132.198 55.4133 133.292 56.4667 134.678 57.24C136.065 58.0133 137.598 58.4 139.278 58.4C141.092 58.4 142.692 58.0133 144.078 57.24C145.492 56.4667 146.598 55.4133 147.398 54.08C148.198 52.72 148.598 51.1733 148.598 49.44V34.96H153.638V49.6C153.638 52.2133 153.038 54.5467 151.838 56.6C150.638 58.6533 148.972 60.28 146.838 61.48C144.705 62.6533 142.185 63.24 139.278 63.24ZM175.108 63V39.8H164.308V35H191.348V39.8H180.308V63H175.108ZM211.28 63V39.8H200.48V35H227.52V39.8H216.48V63H211.28ZM252.51 63.4C250.003 63.4 247.696 63.04 245.59 62.32C243.51 61.5733 241.696 60.5467 240.15 59.24C238.603 57.9067 237.403 56.3733 236.55 54.64C235.723 52.88 235.31 50.9867 235.31 48.96C235.31 46.9333 235.723 45.0533 236.55 43.32C237.403 41.56 238.603 40.0267 240.15 38.72C241.696 37.3867 243.51 36.36 245.59 35.64C247.696 34.8933 250.003 34.52 252.51 34.52C255.016 34.52 257.31 34.8933 259.39 35.64C261.496 36.36 263.31 37.3867 264.83 38.72C266.376 40.0267 267.576 41.56 268.43 43.32C269.283 45.0533 269.71 46.9333 269.71 48.96C269.71 50.9867 269.283 52.88 268.43 54.64C267.576 56.3733 266.376 57.9067 264.83 59.24C263.31 60.5467 261.496 61.5733 259.39 62.32C257.31 63.04 255.016 63.4 252.51 63.4ZM252.51 58.44C254.27 58.44 255.87 58.2 257.31 57.72C258.75 57.24 260.003 56.5733 261.07 55.72C262.136 54.84 262.963 53.8267 263.55 52.68C264.136 51.5333 264.43 50.2933 264.43 48.96C264.43 47.6267 264.136 46.3867 263.55 45.24C262.963 44.0933 262.136 43.0933 261.07 42.24C260.003 41.36 258.75 40.68 257.31 40.2C255.87 39.72 254.27 39.48 252.51 39.48C250.776 39.48 249.176 39.72 247.71 40.2C246.243 40.68 244.976 41.36 243.91 42.24C242.87 43.0933 242.056 44.0933 241.47 45.24C240.91 46.3867 240.63 47.6267 240.63 48.96C240.63 50.2933 240.91 51.5333 241.47 52.68C242.056 53.8267 242.87 54.84 243.91 55.72C244.976 56.5733 246.243 57.24 247.71 57.72C249.176 58.2 250.776 58.44 252.51 58.44ZM281.921 63V35H287.001L308.841 56.88L308.361 57.04C308.227 56.16 308.107 55.2667 308.001 54.36C307.921 53.4267 307.854 52.4933 307.801 51.56C307.747 50.6267 307.694 49.6933 307.641 48.76C307.614 47.8267 307.587 46.92 307.561 46.04C307.561 45.1333 307.561 44.2533 307.561 43.4V35H312.721V63H307.561L285.641 41.44L286.281 41.16C286.334 41.6133 286.387 42.1467 286.441 42.76C286.494 43.3733 286.561 44.04 286.641 44.76C286.721 45.48 286.787 46.2533 286.841 47.08C286.921 47.88 286.974 48.72 287.001 49.6C287.054 50.4533 287.081 51.3067 287.081 52.16V63H281.921Z" fill="#E6EBEE"/>
</svg>
