<svg width="2627" height="2991" viewBox="0 0 2627 2991" fill="none" xmlns="http://www.w3.org/2000/svg">
<rect x="729.334" y="348" width="1161" height="734" rx="125" fill="#E6EBEE" stroke="#1F2428" stroke-width="50"/>
<circle cx="1115.83" cy="630.5" r="139.5" fill="#1F2428"/>
<ellipse cx="1040.33" cy="631" rx="64" ry="63" fill="#E6EBEE"/>
<circle cx="1509.83" cy="630.5" r="139.5" fill="#1F2428"/>
<ellipse cx="1434.33" cy="631" rx="64" ry="63" fill="#E6EBEE"/>
<path d="M1202.46 896V864H1242.46V896H1202.46ZM1290.46 896V864H1330.46V896H1290.46ZM1378.46 896V864H1418.46V896H1378.46Z" fill="#1F2428"/>
<path d="M1310.09 328C1305.09 328 1300.93 324.833 1297.59 318.5C1293.59 310.833 1288.09 299.667 1281.09 285C1274.09 270 1266.26 253.333 1257.59 235C1249.26 216.333 1240.76 197.5 1232.09 178.5C1223.76 159.5 1216.09 141.833 1209.09 125.5C1202.43 108.833 1197.26 95.3333 1193.59 85C1192.26 81.3333 1191.09 77.8333 1190.09 74.5C1189.09 71.1667 1188.59 68.8333 1188.59 67.5C1188.59 64.5 1189.59 61.6667 1191.59 59C1193.59 56.3333 1196.76 55 1201.09 55C1203.76 55 1206.26 55.8333 1208.59 57.5C1210.93 58.8333 1212.43 60.8333 1213.09 63.5C1216.43 74.1667 1221.09 87.1667 1227.09 102.5C1233.09 117.5 1239.76 133.5 1247.09 150.5C1254.43 167.5 1261.93 184.667 1269.59 202C1277.26 219 1284.59 235 1291.59 250C1298.59 264.667 1304.76 277.333 1310.09 288C1316.76 274.333 1324.59 258 1333.59 239C1342.59 219.667 1351.59 199.5 1360.59 178.5C1369.93 157.5 1378.59 137 1386.59 117C1394.93 97 1401.59 79.3333 1406.59 64C1408.59 58.3333 1412.76 55.5 1419.09 55.5C1422.43 55.5 1425.26 56.8333 1427.59 59.5C1429.93 61.8333 1431.09 64.8333 1431.09 68.5C1431.09 69.5 1430.59 71.5 1429.59 74.5C1428.93 77.5 1427.43 82.1667 1425.09 88.5C1420.76 99.8333 1415.09 113.667 1408.09 130C1401.43 146.333 1393.93 163.833 1385.59 182.5C1377.59 201.167 1369.43 219.5 1361.09 237.5C1352.76 255.5 1345.09 271.833 1338.09 286.5C1331.09 301.167 1325.43 312.833 1321.09 321.5C1319.09 325.833 1315.43 328 1310.09 328Z" fill="#1F2428"/>
<path d="M1908.85 814.805V827H1896.65V814.805H1908.85ZM1908.85 802.61V814.805H1896.65V802.61H1908.85ZM1908.85 790.415V802.61H1896.65V790.415H1908.85ZM1908.85 778.22V790.415H1896.65V778.22H1908.85ZM1908.85 766.024V778.22H1896.65V766.024H1908.85ZM1908.85 753.829V766.024H1896.65V753.829H1908.85ZM1908.85 741.634V753.829H1896.65V741.634H1908.85ZM1908.85 729.439V741.634H1896.65V729.439H1908.85ZM1908.85 717.244V729.439H1896.65V717.244H1908.85ZM1908.85 705.049V717.244H1896.65V705.049H1908.85ZM1908.85 692.854V705.049H1896.65V692.854H1908.85ZM1908.85 680.659V692.854H1896.65V680.659H1908.85ZM1908.85 668.463V680.659H1896.65V668.463H1908.85ZM1908.85 656.268V668.463H1896.65V656.268H1908.85ZM1908.85 644.073V656.268H1896.65V644.073H1908.85ZM1921.04 644.073V656.268H1908.85V644.073H1921.04ZM1921.04 656.268V668.463H1908.85V656.268H1921.04ZM1921.04 668.463V680.659H1908.85V668.463H1921.04ZM1921.04 680.659V692.854H1908.85V680.659H1921.04ZM1921.04 692.854V705.049H1908.85V692.854H1921.04ZM1921.04 705.049V717.244H1908.85V705.049H1921.04ZM1921.04 717.244V729.439H1908.85V717.244H1921.04ZM1933.24 729.439V741.634H1921.04V729.439H1933.24ZM1933.24 741.634V753.829H1921.04V741.634H1933.24ZM1933.24 753.829V766.024H1921.04V753.829H1933.24ZM1933.24 766.024V778.22H1921.04V766.024H1933.24ZM1933.24 778.22V790.415H1921.04V778.22H1933.24ZM1933.24 790.415V802.61H1921.04V790.415H1933.24ZM1933.24 802.61V814.805H1921.04V802.61H1933.24ZM1933.24 814.805V827H1921.04V814.805H1933.24ZM1945.43 814.805V827H1933.24V814.805H1945.43ZM1957.63 814.805V827H1945.43V814.805H1957.63ZM1957.63 802.61V814.805H1945.43V802.61H1957.63ZM1957.63 790.415V802.61H1945.43V790.415H1957.63ZM1957.63 778.22V790.415H1945.43V778.22H1957.63ZM1957.63 766.024V778.22H1945.43V766.024H1957.63ZM1957.63 753.829V766.024H1945.43V753.829H1957.63ZM1957.63 741.634V753.829H1945.43V741.634H1957.63ZM1957.63 729.439V741.634H1945.43V729.439H1957.63ZM1945.43 729.439V741.634H1933.24V729.439H1945.43ZM1945.43 717.244V729.439H1933.24V717.244H1945.43ZM1945.43 741.634V753.829H1933.24V741.634H1945.43ZM1945.43 753.829V766.024H1933.24V753.829H1945.43ZM1945.43 766.024V778.22H1933.24V766.024H1945.43ZM1945.43 778.22V790.415H1933.24V778.22H1945.43ZM1945.43 790.415V802.61H1933.24V790.415H1945.43ZM1945.43 802.61V814.805H1933.24V802.61H1945.43ZM1921.04 814.805V827H1908.85V814.805H1921.04ZM1921.04 802.61V814.805H1908.85V802.61H1921.04ZM1921.04 790.415V802.61H1908.85V790.415H1921.04ZM1921.04 778.22V790.415H1908.85V778.22H1921.04ZM1921.04 766.024V778.22H1908.85V766.024H1921.04ZM1921.04 753.829V766.024H1908.85V753.829H1921.04ZM1921.04 741.634V753.829H1908.85V741.634H1921.04ZM1921.04 729.439V741.634H1908.85V729.439H1921.04ZM1908.85 522.122V534.317H1896.65V522.122H1908.85ZM1908.85 534.317V546.512H1896.65V534.317H1908.85ZM1908.85 546.512V558.707H1896.65V546.512H1908.85ZM1908.85 558.707V570.902H1896.65V558.707H1908.85ZM1908.85 570.902V583.098H1896.65V570.902H1908.85ZM1908.85 583.098V595.293H1896.65V583.098H1908.85ZM1908.85 595.293V607.488H1896.65V595.293H1908.85ZM1908.85 607.488V619.683H1896.65V607.488H1908.85ZM1908.85 619.683V631.878H1896.65V619.683H1908.85ZM1908.85 631.878V644.073H1896.65V631.878H1908.85ZM1945.43 522.122V534.317H1933.24V522.122H1945.43ZM1945.43 534.317V546.512H1933.24V534.317H1945.43ZM1945.43 546.512V558.707H1933.24V546.512H1945.43ZM1945.43 558.707V570.902H1933.24V558.707H1945.43ZM1945.43 570.902V583.098H1933.24V570.902H1945.43ZM1945.43 583.098V595.293H1933.24V583.098H1945.43ZM1945.43 607.488V619.683H1933.24V607.488H1945.43ZM1945.43 619.683V631.878H1933.24V619.683H1945.43ZM1945.43 631.878V644.073H1933.24V631.878H1945.43ZM1945.43 644.073V656.268H1933.24V644.073H1945.43ZM1945.43 656.268V668.463H1933.24V656.268H1945.43ZM1945.43 668.463V680.659H1933.24V668.463H1945.43ZM1945.43 680.659V692.854H1933.24V680.659H1945.43ZM1957.63 692.854V705.049H1945.43V692.854H1957.63ZM1957.63 705.049V717.244H1945.43V705.049H1957.63ZM1957.63 717.244V729.439H1945.43V717.244H1957.63ZM1957.63 680.659V692.854H1945.43V680.659H1957.63ZM1957.63 668.463V680.659H1945.43V668.463H1957.63ZM1957.63 656.268V668.463H1945.43V656.268H1957.63ZM1957.63 644.073V656.268H1945.43V644.073H1957.63ZM1957.63 631.878V644.073H1945.43V631.878H1957.63ZM1957.63 619.683V631.878H1945.43V619.683H1957.63ZM1957.63 607.488V619.683H1945.43V607.488H1957.63ZM1957.63 595.293V607.488H1945.43V595.293H1957.63ZM1957.63 583.098V595.293H1945.43V583.098H1957.63ZM1957.63 570.902V583.098H1945.43V570.902H1957.63ZM1945.43 595.293V607.488H1933.24V595.293H1945.43ZM1957.63 558.707V570.902H1945.43V558.707H1957.63ZM1957.63 546.512V558.707H1945.43V546.512H1957.63ZM1957.63 534.317V546.512H1945.43V534.317H1957.63ZM1957.63 522.122V534.317H1945.43V522.122H1957.63ZM1933.24 522.122V534.317H1921.04V522.122H1933.24ZM1921.04 522.122V534.317H1908.85V522.122H1921.04ZM1921.04 534.317V546.512H1908.85V534.317H1921.04ZM1933.24 534.317V546.512H1921.04V534.317H1933.24ZM1933.24 546.512V558.707H1921.04V546.512H1933.24ZM1933.24 558.707V570.902H1921.04V558.707H1933.24ZM1933.24 570.902V583.098H1921.04V570.902H1933.24ZM1933.24 583.098V595.293H1921.04V583.098H1933.24ZM1933.24 595.293V607.488H1921.04V595.293H1933.24ZM1933.24 607.488V619.683H1921.04V607.488H1933.24ZM1921.04 619.683V631.878H1908.85V619.683H1921.04ZM1921.04 631.878V644.073H1908.85V631.878H1921.04ZM1921.04 607.488V619.683H1908.85V607.488H1921.04ZM1921.04 595.293V607.488H1908.85V595.293H1921.04ZM1921.04 583.098V595.293H1908.85V583.098H1921.04ZM1921.04 570.902V583.098H1908.85V570.902H1921.04ZM1921.04 558.707V570.902H1908.85V558.707H1921.04ZM1921.04 546.512V558.707H1908.85V546.512H1921.04ZM1933.24 619.683V631.878H1921.04V619.683H1933.24ZM1933.24 631.878V644.073H1921.04V631.878H1933.24ZM1933.24 644.073V656.268H1921.04V644.073H1933.24ZM1933.24 656.268V668.463H1921.04V656.268H1933.24ZM1933.24 668.463V680.659H1921.04V668.463H1933.24ZM1933.24 680.659V692.854H1921.04V680.659H1933.24ZM1933.24 692.854V705.049H1921.04V692.854H1933.24ZM1933.24 705.049V717.244H1921.04V705.049H1933.24ZM1933.24 717.244V729.439H1921.04V717.244H1933.24ZM1945.43 705.049V717.244H1933.24V705.049H1945.43ZM1945.43 692.854V705.049H1933.24V692.854H1945.43ZM1969.82 522.122V534.317H1957.63V522.122H1969.82ZM1982.02 522.122V534.317H1969.82V522.122H1982.02ZM1982.02 534.317V546.512H1969.82V534.317H1982.02ZM1969.82 534.317V546.512H1957.63V534.317H1969.82ZM1969.82 546.512V558.707H1957.63V546.512H1969.82ZM1982.02 546.512V558.707H1969.82V546.512H1982.02ZM1982.02 558.707V570.902H1969.82V558.707H1982.02ZM1969.82 558.707V570.902H1957.63V558.707H1969.82ZM1969.82 570.902V583.098H1957.63V570.902H1969.82ZM1982.02 570.902V583.098H1969.82V570.902H1982.02ZM1969.82 814.805V827H1957.63V814.805H1969.82ZM1982.02 814.805V827H1969.82V814.805H1982.02ZM1982.02 802.61V814.805H1969.82V802.61H1982.02ZM1982.02 790.415V802.61H1969.82V790.415H1982.02ZM1982.02 778.22V790.415H1969.82V778.22H1982.02ZM1982.02 766.024V778.22H1969.82V766.024H1982.02ZM1969.82 766.024V778.22H1957.63V766.024H1969.82ZM1969.82 778.22V790.415H1957.63V778.22H1969.82ZM1969.82 790.415V802.61H1957.63V790.415H1969.82ZM1969.82 802.61V814.805H1957.63V802.61H1969.82ZM2043 619.683V631.878H2030.8V619.683H2043ZM2043 607.488V619.683H2030.8V607.488H2043ZM2043 595.293V607.488H2030.8V595.293H2043ZM2030.8 583.098V595.293H2018.61V583.098H2030.8ZM2018.61 570.902V583.098H2006.41V570.902H2018.61ZM2006.41 570.902V583.098H1994.21V570.902H2006.41ZM1994.21 570.902V583.098H1982.02V570.902H1994.21ZM1994.21 522.122V534.317H1982.02V522.122H1994.21ZM2006.41 522.122V534.317H1994.21V522.122H2006.41ZM2018.61 522.122V534.317H2006.41V522.122H2018.61ZM2030.8 522.122V534.317H2018.61V522.122H2030.8ZM2030.8 534.317V546.512H2018.61V534.317H2030.8ZM2030.8 546.512V558.707H2018.61V546.512H2030.8ZM2030.8 558.707V570.902H2018.61V558.707H2030.8ZM2018.61 558.707V570.902H2006.41V558.707H2018.61ZM2018.61 546.512V558.707H2006.41V546.512H2018.61ZM2006.41 546.512V558.707H1994.21V546.512H2006.41ZM1994.21 546.512V558.707H1982.02V546.512H1994.21ZM1994.21 534.317V546.512H1982.02V534.317H1994.21ZM2006.41 534.317V546.512H1994.21V534.317H2006.41ZM2018.61 534.317V546.512H2006.41V534.317H2018.61ZM1994.21 558.707V570.902H1982.02V558.707H1994.21ZM2006.41 558.707V570.902H1994.21V558.707H2006.41ZM2030.8 570.902V583.098H2018.61V570.902H2030.8ZM2043 583.098V595.293H2030.8V583.098H2043ZM2043 570.902V583.098H2030.8V570.902H2043ZM2043 558.707V570.902H2030.8V558.707H2043ZM2043 546.512V558.707H2030.8V546.512H2043ZM2043 534.317V546.512H2030.8V534.317H2043ZM2043 522.122V534.317H2030.8V522.122H2043ZM2043 631.878V644.073H2030.8V631.878H2043ZM2043 644.073V656.268H2030.8V644.073H2043ZM2043 656.268V668.463H2030.8V656.268H2043ZM2043 668.463V680.659H2030.8V668.463H2043ZM2043 680.659V692.854H2030.8V680.659H2043ZM2043 692.854V705.049H2030.8V692.854H2043ZM2043 717.244V729.439H2030.8V717.244H2043ZM2043 705.049V717.244H2030.8V705.049H2043ZM2043 729.439V741.634H2030.8V729.439H2043ZM2043 741.634V753.829H2030.8V741.634H2043ZM1994.21 766.024V778.22H1982.02V766.024H1994.21ZM2006.41 766.024V778.22H1994.21V766.024H2006.41ZM2018.61 766.024V778.22H2006.41V766.024H2018.61ZM2030.8 753.829V766.024H2018.61V753.829H2030.8ZM2043 753.829V766.024H2030.8V753.829H2043ZM2043 766.024V778.22H2030.8V766.024H2043ZM2030.8 766.024V778.22H2018.61V766.024H2030.8ZM2043 778.22V790.415H2030.8V778.22H2043ZM2043 790.415V802.61H2030.8V790.415H2043ZM2043 802.61V814.805H2030.8V802.61H2043ZM2043 814.805V827H2030.8V814.805H2043ZM2030.8 814.805V827H2018.61V814.805H2030.8ZM2030.8 802.61V814.805H2018.61V802.61H2030.8ZM2018.61 802.61V814.805H2006.41V802.61H2018.61ZM2006.41 814.805V827H1994.21V814.805H2006.41ZM1994.21 814.805V827H1982.02V814.805H1994.21ZM2018.61 814.805V827H2006.41V814.805H2018.61ZM2006.41 802.61V814.805H1994.21V802.61H2006.41ZM1994.21 802.61V814.805H1982.02V802.61H1994.21ZM1994.21 790.415V802.61H1982.02V790.415H1994.21ZM2006.41 790.415V802.61H1994.21V790.415H2006.41ZM2018.61 790.415V802.61H2006.41V790.415H2018.61ZM2030.8 790.415V802.61H2018.61V790.415H2030.8ZM2030.8 778.22V790.415H2018.61V778.22H2030.8ZM2018.61 778.22V790.415H2006.41V778.22H2018.61ZM2006.41 778.22V790.415H1994.21V778.22H2006.41ZM1994.21 778.22V790.415H1982.02V778.22H1994.21ZM2055.19 534.317V546.512H2043V534.317H2055.19ZM2067.39 534.317V546.512H2055.19V534.317H2067.39ZM2067.39 546.512V558.707H2055.19V546.512H2067.39ZM2079.58 546.512V558.707H2067.39V546.512H2079.58ZM2079.58 558.707V570.902H2067.39V558.707H2079.58ZM2079.58 570.902V583.098H2067.39V570.902H2079.58ZM2091.78 570.902V583.098H2079.58V570.902H2091.78ZM2091.78 583.098V595.293H2079.58V583.098H2091.78ZM2091.78 595.293V607.488H2079.58V595.293H2091.78ZM2091.78 607.488V619.683H2079.58V607.488H2091.78ZM2091.78 619.683V631.878H2079.58V619.683H2091.78ZM2091.78 631.878V644.073H2079.58V631.878H2091.78ZM2091.78 644.073V656.268H2079.58V644.073H2091.78ZM2079.58 656.268V668.463H2067.39V656.268H2079.58ZM2067.39 668.463V680.659H2055.19V668.463H2067.39ZM2079.58 680.659V692.854H2067.39V680.659H2079.58ZM2091.78 692.854V705.049H2079.58V692.854H2091.78ZM2055.19 802.61V814.805H2043V802.61H2055.19ZM2067.39 802.61V814.805H2055.19V802.61H2067.39ZM2079.58 790.415V802.61H2067.39V790.415H2079.58ZM2091.78 766.024V778.22H2079.58V766.024H2091.78ZM2067.39 790.415V802.61H2055.19V790.415H2067.39ZM2067.39 778.22V790.415H2055.19V778.22H2067.39ZM2079.58 778.22V790.415H2067.39V778.22H2079.58ZM2091.78 753.829V766.024H2079.58V753.829H2091.78ZM2091.78 741.634V753.829H2079.58V741.634H2091.78ZM2091.78 729.439V741.634H2079.58V729.439H2091.78ZM2091.78 717.244V729.439H2079.58V717.244H2091.78ZM2091.78 705.049V717.244H2079.58V705.049H2091.78ZM2055.19 680.659V692.854H2043V680.659H2055.19ZM2067.39 680.659V692.854H2055.19V680.659H2067.39ZM2067.39 692.854V705.049H2055.19V692.854H2067.39ZM2055.19 692.854V705.049H2043V692.854H2055.19ZM2079.58 692.854V705.049H2067.39V692.854H2079.58ZM2079.58 705.049V717.244H2067.39V705.049H2079.58ZM2079.58 717.244V729.439H2067.39V717.244H2079.58ZM2079.58 729.439V741.634H2067.39V729.439H2079.58ZM2079.58 741.634V753.829H2067.39V741.634H2079.58ZM2079.58 753.829V766.024H2067.39V753.829H2079.58ZM2079.58 766.024V778.22H2067.39V766.024H2079.58ZM2067.39 766.024V778.22H2055.19V766.024H2067.39ZM2067.39 753.829V766.024H2055.19V753.829H2067.39ZM2067.39 741.634V753.829H2055.19V741.634H2067.39ZM2067.39 729.439V741.634H2055.19V729.439H2067.39ZM2067.39 717.244V729.439H2055.19V717.244H2067.39ZM2067.39 705.049V717.244H2055.19V705.049H2067.39ZM2055.19 705.049V717.244H2043V705.049H2055.19ZM2055.19 717.244V729.439H2043V717.244H2055.19ZM2055.19 729.439V741.634H2043V729.439H2055.19ZM2055.19 741.634V753.829H2043V741.634H2055.19ZM2055.19 753.829V766.024H2043V753.829H2055.19ZM2055.19 766.024V778.22H2043V766.024H2055.19ZM2055.19 778.22V790.415H2043V778.22H2055.19ZM2055.19 790.415V802.61H2043V790.415H2055.19ZM2055.19 546.512V558.707H2043V546.512H2055.19ZM2055.19 558.707V570.902H2043V558.707H2055.19ZM2055.19 570.902V583.098H2043V570.902H2055.19ZM2055.19 583.098V595.293H2043V583.098H2055.19ZM2055.19 595.293V607.488H2043V595.293H2055.19ZM2055.19 607.488V619.683H2043V607.488H2055.19ZM2055.19 619.683V631.878H2043V619.683H2055.19ZM2055.19 631.878V644.073H2043V631.878H2055.19ZM2055.19 644.073V656.268H2043V644.073H2055.19ZM2055.19 656.268V668.463H2043V656.268H2055.19ZM2055.19 668.463V680.659H2043V668.463H2055.19ZM2067.39 656.268V668.463H2055.19V656.268H2067.39ZM2067.39 644.073V656.268H2055.19V644.073H2067.39ZM2067.39 631.878V644.073H2055.19V631.878H2067.39ZM2067.39 619.683V631.878H2055.19V619.683H2067.39ZM2067.39 607.488V619.683H2055.19V607.488H2067.39ZM2067.39 595.293V607.488H2055.19V595.293H2067.39ZM2067.39 583.098V595.293H2055.19V583.098H2067.39ZM2067.39 570.902V583.098H2055.19V570.902H2067.39ZM2067.39 558.707V570.902H2055.19V558.707H2067.39ZM2079.58 583.098V595.293H2067.39V583.098H2079.58ZM2079.58 595.293V607.488H2067.39V595.293H2079.58ZM2079.58 607.488V619.683H2067.39V607.488H2079.58ZM2079.58 619.683V631.878H2067.39V619.683H2079.58ZM2079.58 631.878V644.073H2067.39V631.878H2079.58ZM2079.58 644.073V656.268H2067.39V644.073H2079.58ZM2091.78 656.268V668.463H2079.58V656.268H2091.78ZM2091.78 668.463V680.659H2079.58V668.463H2091.78ZM2091.78 680.659V692.854H2079.58V680.659H2091.78ZM2079.58 668.463V680.659H2067.39V668.463H2079.58Z" fill="#1F2428"/>
<path d="M699.819 814.805V827H712.014V814.805H699.819ZM699.819 802.61V814.805H712.014V802.61H699.819ZM699.819 790.415V802.61H712.014V790.415H699.819ZM699.819 778.22V790.415H712.014V778.22H699.819ZM699.819 766.024V778.22H712.014V766.024H699.819ZM699.819 753.829V766.024H712.014V753.829H699.819ZM699.819 741.634V753.829H712.014V741.634H699.819ZM699.819 729.439V741.634H712.014V729.439H699.819ZM699.819 717.244V729.439H712.014V717.244H699.819ZM699.819 705.049V717.244H712.014V705.049H699.819ZM699.819 692.854V705.049H712.014V692.854H699.819ZM699.819 680.659V692.854H712.014V680.659H699.819ZM699.819 668.463V680.659H712.014V668.463H699.819ZM699.819 656.268V668.463H712.014V656.268H699.819ZM699.819 644.073V656.268H712.014V644.073H699.819ZM687.624 644.073V656.268H699.819V644.073H687.624ZM687.624 656.268V668.463H699.819V656.268H687.624ZM687.624 668.463V680.659H699.819V668.463H687.624ZM687.624 680.659V692.854H699.819V680.659H687.624ZM687.624 692.854V705.049H699.819V692.854H687.624ZM687.624 705.049V717.244H699.819V705.049H687.624ZM687.624 717.244V729.439H699.819V717.244H687.624ZM675.429 729.439V741.634H687.624V729.439H675.429ZM675.429 741.634V753.829H687.624V741.634H675.429ZM675.429 753.829V766.024H687.624V753.829H675.429ZM675.429 766.024V778.22H687.624V766.024H675.429ZM675.429 778.22V790.415H687.624V778.22H675.429ZM675.429 790.415V802.61H687.624V790.415H675.429ZM675.429 802.61V814.805H687.624V802.61H675.429ZM675.429 814.805V827H687.624V814.805H675.429ZM663.234 814.805V827H675.429V814.805H663.234ZM651.038 814.805V827H663.234V814.805H651.038ZM651.038 802.61V814.805H663.234V802.61H651.038ZM651.038 790.415V802.61H663.234V790.415H651.038ZM651.038 778.22V790.415H663.234V778.22H651.038ZM651.038 766.024V778.22H663.234V766.024H651.038ZM651.038 753.829V766.024H663.234V753.829H651.038ZM651.038 741.634V753.829H663.234V741.634H651.038ZM651.038 729.439V741.634H663.234V729.439H651.038ZM663.234 729.439V741.634H675.429V729.439H663.234ZM663.234 717.244V729.439H675.429V717.244H663.234ZM663.234 741.634V753.829H675.429V741.634H663.234ZM663.234 753.829V766.024H675.429V753.829H663.234ZM663.234 766.024V778.22H675.429V766.024H663.234ZM663.234 778.22V790.415H675.429V778.22H663.234ZM663.234 790.415V802.61H675.429V790.415H663.234ZM663.234 802.61V814.805H675.429V802.61H663.234ZM687.624 814.805V827H699.819V814.805H687.624ZM687.624 802.61V814.805H699.819V802.61H687.624ZM687.624 790.415V802.61H699.819V790.415H687.624ZM687.624 778.22V790.415H699.819V778.22H687.624ZM687.624 766.024V778.22H699.819V766.024H687.624ZM687.624 753.829V766.024H699.819V753.829H687.624ZM687.624 741.634V753.829H699.819V741.634H687.624ZM687.624 729.439V741.634H699.819V729.439H687.624ZM699.819 522.122V534.317H712.014V522.122H699.819ZM699.819 534.317V546.512H712.014V534.317H699.819ZM699.819 546.512V558.707H712.014V546.512H699.819ZM699.819 558.707V570.902H712.014V558.707H699.819ZM699.819 570.902V583.098H712.014V570.902H699.819ZM699.819 583.098V595.293H712.014V583.098H699.819ZM699.819 595.293V607.488H712.014V595.293H699.819ZM699.819 607.488V619.683H712.014V607.488H699.819ZM699.819 619.683V631.878H712.014V619.683H699.819ZM699.819 631.878V644.073H712.014V631.878H699.819ZM663.234 522.122V534.317H675.429V522.122H663.234ZM663.234 534.317V546.512H675.429V534.317H663.234ZM663.234 546.512V558.707H675.429V546.512H663.234ZM663.234 558.707V570.902H675.429V558.707H663.234ZM663.234 570.902V583.098H675.429V570.902H663.234ZM663.234 583.098V595.293H675.429V583.098H663.234ZM663.234 607.488V619.683H675.429V607.488H663.234ZM663.234 619.683V631.878H675.429V619.683H663.234ZM663.234 631.878V644.073H675.429V631.878H663.234ZM663.234 644.073V656.268H675.429V644.073H663.234ZM663.234 656.268V668.463H675.429V656.268H663.234ZM663.234 668.463V680.659H675.429V668.463H663.234ZM663.234 680.659V692.854H675.429V680.659H663.234ZM651.038 692.854V705.049H663.234V692.854H651.038ZM651.038 705.049V717.244H663.234V705.049H651.038ZM651.038 717.244V729.439H663.234V717.244H651.038ZM651.038 680.659V692.854H663.234V680.659H651.038ZM651.038 668.463V680.659H663.234V668.463H651.038ZM651.038 656.268V668.463H663.234V656.268H651.038ZM651.038 644.073V656.268H663.234V644.073H651.038ZM651.038 631.878V644.073H663.234V631.878H651.038ZM651.038 619.683V631.878H663.234V619.683H651.038ZM651.038 607.488V619.683H663.234V607.488H651.038ZM651.038 595.293V607.488H663.234V595.293H651.038ZM651.038 583.098V595.293H663.234V583.098H651.038ZM651.038 570.902V583.098H663.234V570.902H651.038ZM663.234 595.293V607.488H675.429V595.293H663.234ZM651.038 558.707V570.902H663.234V558.707H651.038ZM651.038 546.512V558.707H663.234V546.512H651.038ZM651.038 534.317V546.512H663.234V534.317H651.038ZM651.038 522.122V534.317H663.234V522.122H651.038ZM675.429 522.122V534.317H687.624V522.122H675.429ZM687.624 522.122V534.317H699.819V522.122H687.624ZM687.624 534.317V546.512H699.819V534.317H687.624ZM675.429 534.317V546.512H687.624V534.317H675.429ZM675.429 546.512V558.707H687.624V546.512H675.429ZM675.429 558.707V570.902H687.624V558.707H675.429ZM675.429 570.902V583.098H687.624V570.902H675.429ZM675.429 583.098V595.293H687.624V583.098H675.429ZM675.429 595.293V607.488H687.624V595.293H675.429ZM675.429 607.488V619.683H687.624V607.488H675.429ZM687.624 619.683V631.878H699.819V619.683H687.624ZM687.624 631.878V644.073H699.819V631.878H687.624ZM687.624 607.488V619.683H699.819V607.488H687.624ZM687.624 595.293V607.488H699.819V595.293H687.624ZM687.624 583.098V595.293H699.819V583.098H687.624ZM687.624 570.902V583.098H699.819V570.902H687.624ZM687.624 558.707V570.902H699.819V558.707H687.624ZM687.624 546.512V558.707H699.819V546.512H687.624ZM675.429 619.683V631.878H687.624V619.683H675.429ZM675.429 631.878V644.073H687.624V631.878H675.429ZM675.429 644.073V656.268H687.624V644.073H675.429ZM675.429 656.268V668.463H687.624V656.268H675.429ZM675.429 668.463V680.659H687.624V668.463H675.429ZM675.429 680.659V692.854H687.624V680.659H675.429ZM675.429 692.854V705.049H687.624V692.854H675.429ZM675.429 705.049V717.244H687.624V705.049H675.429ZM675.429 717.244V729.439H687.624V717.244H675.429ZM663.234 705.049V717.244H675.429V705.049H663.234ZM663.234 692.854V705.049H675.429V692.854H663.234ZM638.843 522.122V534.317H651.038V522.122H638.843ZM626.648 522.122V534.317H638.843V522.122H626.648ZM626.648 534.317V546.512H638.843V534.317H626.648ZM638.843 534.317V546.512H651.038V534.317H638.843ZM638.843 546.512V558.707H651.038V546.512H638.843ZM626.648 546.512V558.707H638.843V546.512H626.648ZM626.648 558.707V570.902H638.843V558.707H626.648ZM638.843 558.707V570.902H651.038V558.707H638.843ZM638.843 570.902V583.098H651.038V570.902H638.843ZM626.648 570.902V583.098H638.843V570.902H626.648ZM638.843 814.805V827H651.038V814.805H638.843ZM626.648 814.805V827H638.843V814.805H626.648ZM626.648 802.61V814.805H638.843V802.61H626.648ZM626.648 790.415V802.61H638.843V790.415H626.648ZM626.648 778.22V790.415H638.843V778.22H626.648ZM626.648 766.024V778.22H638.843V766.024H626.648ZM638.843 766.024V778.22H651.038V766.024H638.843ZM638.843 778.22V790.415H651.038V778.22H638.843ZM638.843 790.415V802.61H651.038V790.415H638.843ZM638.843 802.61V814.805H651.038V802.61H638.843ZM565.673 619.683V631.878H577.868V619.683H565.673ZM565.673 607.488V619.683H577.868V607.488H565.673ZM565.673 595.293V607.488H577.868V595.293H565.673ZM577.868 583.098V595.293H590.063V583.098H577.868ZM590.063 570.902V583.098H602.258V570.902H590.063ZM602.258 570.902V583.098H614.453V570.902H602.258ZM614.453 570.902V583.098H626.648V570.902H614.453ZM614.453 522.122V534.317H626.648V522.122H614.453ZM602.258 522.122V534.317H614.453V522.122H602.258ZM590.063 522.122V534.317H602.258V522.122H590.063ZM577.868 522.122V534.317H590.063V522.122H577.868ZM577.868 534.317V546.512H590.063V534.317H577.868ZM577.868 546.512V558.707H590.063V546.512H577.868ZM577.868 558.707V570.902H590.063V558.707H577.868ZM590.063 558.707V570.902H602.258V558.707H590.063ZM590.063 546.512V558.707H602.258V546.512H590.063ZM602.258 546.512V558.707H614.453V546.512H602.258ZM614.453 546.512V558.707H626.648V546.512H614.453ZM614.453 534.317V546.512H626.648V534.317H614.453ZM602.258 534.317V546.512H614.453V534.317H602.258ZM590.063 534.317V546.512H602.258V534.317H590.063ZM614.453 558.707V570.902H626.648V558.707H614.453ZM602.258 558.707V570.902H614.453V558.707H602.258ZM577.868 570.902V583.098H590.063V570.902H577.868ZM565.673 583.098V595.293H577.868V583.098H565.673ZM565.673 570.902V583.098H577.868V570.902H565.673ZM565.673 558.707V570.902H577.868V558.707H565.673ZM565.673 546.512V558.707H577.868V546.512H565.673ZM565.673 534.317V546.512H577.868V534.317H565.673ZM565.673 522.122V534.317H577.868V522.122H565.673ZM565.673 631.878V644.073H577.868V631.878H565.673ZM565.673 644.073V656.268H577.868V644.073H565.673ZM565.673 656.268V668.463H577.868V656.268H565.673ZM565.673 668.463V680.659H577.868V668.463H565.673ZM565.673 680.659V692.854H577.868V680.659H565.673ZM565.673 692.854V705.049H577.868V692.854H565.673ZM565.673 717.244V729.439H577.868V717.244H565.673ZM565.673 705.049V717.244H577.868V705.049H565.673ZM565.673 729.439V741.634H577.868V729.439H565.673ZM565.673 741.634V753.829H577.868V741.634H565.673ZM614.453 766.024V778.22H626.648V766.024H614.453ZM602.258 766.024V778.22H614.453V766.024H602.258ZM590.063 766.024V778.22H602.258V766.024H590.063ZM577.868 753.829V766.024H590.063V753.829H577.868ZM565.673 753.829V766.024H577.868V753.829H565.673ZM565.673 766.024V778.22H577.868V766.024H565.673ZM577.868 766.024V778.22H590.063V766.024H577.868ZM565.673 778.22V790.415H577.868V778.22H565.673ZM565.673 790.415V802.61H577.868V790.415H565.673ZM565.673 802.61V814.805H577.868V802.61H565.673ZM565.673 814.805V827H577.868V814.805H565.673ZM577.868 814.805V827H590.063V814.805H577.868ZM577.868 802.61V814.805H590.063V802.61H577.868ZM590.063 802.61V814.805H602.258V802.61H590.063ZM602.258 814.805V827H614.453V814.805H602.258ZM614.453 814.805V827H626.648V814.805H614.453ZM590.063 814.805V827H602.258V814.805H590.063ZM602.258 802.61V814.805H614.453V802.61H602.258ZM614.453 802.61V814.805H626.648V802.61H614.453ZM614.453 790.415V802.61H626.648V790.415H614.453ZM602.258 790.415V802.61H614.453V790.415H602.258ZM590.063 790.415V802.61H602.258V790.415H590.063ZM577.868 790.415V802.61H590.063V790.415H577.868ZM577.868 778.22V790.415H590.063V778.22H577.868ZM590.063 778.22V790.415H602.258V778.22H590.063ZM602.258 778.22V790.415H614.453V778.22H602.258ZM614.453 778.22V790.415H626.648V778.22H614.453ZM553.477 534.317V546.512H565.673V534.317H553.477ZM541.282 534.317V546.512H553.477V534.317H541.282ZM541.282 546.512V558.707H553.477V546.512H541.282ZM529.087 546.512V558.707H541.282V546.512H529.087ZM529.087 558.707V570.902H541.282V558.707H529.087ZM529.087 570.902V583.098H541.282V570.902H529.087ZM516.892 570.902V583.098H529.087V570.902H516.892ZM516.892 583.098V595.293H529.087V583.098H516.892ZM516.892 595.293V607.488H529.087V595.293H516.892ZM516.892 607.488V619.683H529.087V607.488H516.892ZM516.892 619.683V631.878H529.087V619.683H516.892ZM516.892 631.878V644.073H529.087V631.878H516.892ZM516.892 644.073V656.268H529.087V644.073H516.892ZM529.087 656.268V668.463H541.282V656.268H529.087ZM541.282 668.463V680.659H553.477V668.463H541.282ZM529.087 680.659V692.854H541.282V680.659H529.087ZM516.892 692.854V705.049H529.087V692.854H516.892ZM553.477 802.61V814.805H565.673V802.61H553.477ZM541.282 802.61V814.805H553.477V802.61H541.282ZM529.087 790.415V802.61H541.282V790.415H529.087ZM516.892 766.024V778.22H529.087V766.024H516.892ZM541.282 790.415V802.61H553.477V790.415H541.282ZM541.282 778.22V790.415H553.477V778.22H541.282ZM529.087 778.22V790.415H541.282V778.22H529.087ZM516.892 753.829V766.024H529.087V753.829H516.892ZM516.892 741.634V753.829H529.087V741.634H516.892ZM516.892 729.439V741.634H529.087V729.439H516.892ZM516.892 717.244V729.439H529.087V717.244H516.892ZM516.892 705.049V717.244H529.087V705.049H516.892ZM553.477 680.659V692.854H565.673V680.659H553.477ZM541.282 680.659V692.854H553.477V680.659H541.282ZM541.282 692.854V705.049H553.477V692.854H541.282ZM553.477 692.854V705.049H565.673V692.854H553.477ZM529.087 692.854V705.049H541.282V692.854H529.087ZM529.087 705.049V717.244H541.282V705.049H529.087ZM529.087 717.244V729.439H541.282V717.244H529.087ZM529.087 729.439V741.634H541.282V729.439H529.087ZM529.087 741.634V753.829H541.282V741.634H529.087ZM529.087 753.829V766.024H541.282V753.829H529.087ZM529.087 766.024V778.22H541.282V766.024H529.087ZM541.282 766.024V778.22H553.477V766.024H541.282ZM541.282 753.829V766.024H553.477V753.829H541.282ZM541.282 741.634V753.829H553.477V741.634H541.282ZM541.282 729.439V741.634H553.477V729.439H541.282ZM541.282 717.244V729.439H553.477V717.244H541.282ZM541.282 705.049V717.244H553.477V705.049H541.282ZM553.477 705.049V717.244H565.673V705.049H553.477ZM553.477 717.244V729.439H565.673V717.244H553.477ZM553.477 729.439V741.634H565.673V729.439H553.477ZM553.477 741.634V753.829H565.673V741.634H553.477ZM553.477 753.829V766.024H565.673V753.829H553.477ZM553.477 766.024V778.22H565.673V766.024H553.477ZM553.477 778.22V790.415H565.673V778.22H553.477ZM553.477 790.415V802.61H565.673V790.415H553.477ZM553.477 546.512V558.707H565.673V546.512H553.477ZM553.477 558.707V570.902H565.673V558.707H553.477ZM553.477 570.902V583.098H565.673V570.902H553.477ZM553.477 583.098V595.293H565.673V583.098H553.477ZM553.477 595.293V607.488H565.673V595.293H553.477ZM553.477 607.488V619.683H565.673V607.488H553.477ZM553.477 619.683V631.878H565.673V619.683H553.477ZM553.477 631.878V644.073H565.673V631.878H553.477ZM553.477 644.073V656.268H565.673V644.073H553.477ZM553.477 656.268V668.463H565.673V656.268H553.477ZM553.477 668.463V680.659H565.673V668.463H553.477ZM541.282 656.268V668.463H553.477V656.268H541.282ZM541.282 644.073V656.268H553.477V644.073H541.282ZM541.282 631.878V644.073H553.477V631.878H541.282ZM541.282 619.683V631.878H553.477V619.683H541.282ZM541.282 607.488V619.683H553.477V607.488H541.282ZM541.282 595.293V607.488H553.477V595.293H541.282ZM541.282 583.098V595.293H553.477V583.098H541.282ZM541.282 570.902V583.098H553.477V570.902H541.282ZM541.282 558.707V570.902H553.477V558.707H541.282ZM529.087 583.098V595.293H541.282V583.098H529.087ZM529.087 595.293V607.488H541.282V595.293H529.087ZM529.087 607.488V619.683H541.282V607.488H529.087ZM529.087 619.683V631.878H541.282V619.683H529.087ZM529.087 631.878V644.073H541.282V631.878H529.087ZM529.087 644.073V656.268H541.282V644.073H529.087ZM516.892 656.268V668.463H529.087V656.268H516.892ZM516.892 668.463V680.659H529.087V668.463H516.892ZM516.892 680.659V692.854H529.087V680.659H516.892ZM529.087 668.463V680.659H541.282V668.463H529.087Z" fill="#1F2428"/>
<rect x="1268.33" y="1069" width="84" height="179" fill="#1F2428"/>
<rect x="919.334" y="1278" width="781" height="1009" rx="120" fill="#E6EBEE" stroke="#1F2428" stroke-width="60"/>
<rect x="992.673" y="1414.68" width="640" height="640" rx="25" transform="rotate(0.417282 992.673 1414.68)" fill="#1F2428" stroke="#E6EBEE" stroke-width="10"/>
<rect x="1055.33" y="1482" width="510" height="510" rx="45" stroke="#E6EBEE" stroke-width="10"/>
<path d="M1218.13 1562.6L1188.83 1600.2C1188.37 1600.8 1188 1601.3 1187.73 1601.7C1187.53 1602.1 1187.43 1602.63 1187.43 1603.3V1604.7C1187.43 1605.63 1187.63 1606.27 1188.03 1606.6C1188.5 1606.87 1189 1607 1189.53 1607H1223.23V1608H1189.53C1188.47 1608 1187.67 1607.73 1187.13 1607.2C1186.67 1606.67 1186.43 1605.83 1186.43 1604.7V1603.1C1186.43 1602.37 1186.6 1601.73 1186.93 1601.2C1187.27 1600.6 1187.67 1600 1188.13 1599.4L1217.43 1561.8C1217.9 1561.2 1218.23 1560.7 1218.43 1560.3C1218.7 1559.9 1218.83 1559.37 1218.83 1558.7V1557.3C1218.83 1556.37 1218.6 1555.77 1218.13 1555.5C1217.73 1555.17 1217.27 1555 1216.73 1555H1186.23V1554H1216.73C1217.8 1554 1218.57 1554.27 1219.03 1554.8C1219.57 1555.33 1219.83 1556.17 1219.83 1557.3V1558.9C1219.83 1559.63 1219.67 1560.3 1219.33 1560.9C1219 1561.43 1218.6 1562 1218.13 1562.6ZM1288.35 1607V1608H1254.65V1554H1288.35V1555H1255.65V1580.1H1280.25V1581.1H1255.65V1607H1288.35ZM1342.78 1555H1320.98V1583.9H1342.78C1346.91 1583.9 1349.68 1582.9 1351.08 1580.9C1352.48 1578.9 1353.18 1576.07 1353.18 1572.4V1565.4C1353.18 1562.33 1352.31 1559.83 1350.58 1557.9C1348.91 1555.97 1346.31 1555 1342.78 1555ZM1320.98 1608H1319.98V1554H1342.78C1346.64 1554 1349.51 1555.1 1351.38 1557.3C1353.24 1559.43 1354.18 1562.13 1354.18 1565.4V1572.3C1354.18 1575.37 1353.78 1577.9 1352.98 1579.9C1352.18 1581.83 1350.58 1583.17 1348.18 1583.9H1349.28C1353.34 1583.9 1356.38 1584.83 1358.38 1586.7C1360.38 1588.5 1361.38 1591.13 1361.38 1594.6V1608H1360.38V1594.6C1360.38 1591.33 1359.48 1588.9 1357.68 1587.3C1355.88 1585.63 1353.08 1584.8 1349.28 1584.8H1320.98V1608ZM1433.11 1595.8C1433.11 1599.8 1431.67 1603.07 1428.81 1605.6C1425.94 1608.07 1420.61 1609.3 1412.81 1609.3C1405.01 1609.3 1399.71 1608.07 1396.91 1605.6C1394.11 1603.07 1392.71 1599.8 1392.71 1595.8V1566.3C1392.71 1562.3 1394.11 1559.07 1396.91 1556.6C1399.71 1554.07 1405.01 1552.8 1412.81 1552.8C1420.61 1552.8 1425.94 1554.07 1428.81 1556.6C1431.67 1559.07 1433.11 1562.3 1433.11 1566.3V1595.8ZM1393.71 1595.8C1393.71 1599.53 1395.04 1602.57 1397.71 1604.9C1400.37 1607.17 1405.41 1608.3 1412.81 1608.3C1420.21 1608.3 1425.27 1607.17 1428.01 1604.9C1430.74 1602.57 1432.11 1599.53 1432.11 1595.8V1566.3C1432.11 1562.57 1430.74 1559.57 1428.01 1557.3C1425.27 1554.97 1420.21 1553.8 1412.81 1553.8C1405.41 1553.8 1400.37 1554.97 1397.71 1557.3C1395.04 1559.57 1393.71 1562.57 1393.71 1566.3V1595.8ZM1188.09 1728V1674H1189.09V1727H1223.89V1707.3H1224.89V1728H1188.09ZM1256.83 1706.7V1709.8H1295.83V1706.7C1295.83 1704.9 1295.66 1703.23 1295.33 1701.7C1295.06 1700.17 1294.69 1698.73 1294.23 1697.4L1287.33 1681.1C1286.59 1679.37 1285.83 1677.93 1285.03 1676.8C1284.23 1675.6 1282.89 1675 1281.03 1675H1271.23C1269.23 1675 1267.83 1675.6 1267.03 1676.8C1266.23 1677.93 1265.49 1679.33 1264.83 1681L1258.43 1697.4C1257.96 1698.73 1257.56 1700.17 1257.23 1701.7C1256.96 1703.23 1256.83 1704.9 1256.83 1706.7ZM1295.83 1728V1710.8H1256.83V1728H1255.83V1706.7C1255.83 1704.83 1255.96 1703.13 1256.23 1701.6C1256.56 1700 1256.99 1698.47 1257.53 1697L1263.93 1680.6C1264.66 1678.73 1265.49 1677.17 1266.43 1675.9C1267.36 1674.63 1268.96 1674 1271.23 1674H1281.03C1283.23 1674 1284.76 1674.63 1285.63 1675.9C1286.56 1677.17 1287.43 1678.77 1288.23 1680.7L1295.13 1697C1295.66 1698.47 1296.06 1700 1296.33 1701.6C1296.66 1703.13 1296.83 1704.83 1296.83 1706.7V1728H1295.83ZM1357.77 1728H1330.87V1674H1351.17C1353.91 1674 1356.14 1674.3 1357.87 1674.9C1359.61 1675.43 1360.94 1676.2 1361.87 1677.2C1362.81 1678.13 1363.44 1679.23 1363.77 1680.5C1364.11 1681.77 1364.27 1683.13 1364.27 1684.6V1691C1364.27 1693 1363.91 1694.83 1363.17 1696.5C1362.51 1698.17 1360.74 1699.37 1357.87 1700.1C1360.61 1700.1 1362.84 1700.4 1364.57 1701C1366.31 1701.53 1367.64 1702.33 1368.57 1703.4C1369.51 1704.4 1370.11 1705.6 1370.37 1707C1370.71 1708.4 1370.87 1709.93 1370.87 1711.6V1718C1370.87 1719.47 1370.71 1720.83 1370.37 1722.1C1370.04 1723.3 1369.41 1724.33 1368.47 1725.2C1367.61 1726.07 1366.31 1726.77 1364.57 1727.3C1362.84 1727.77 1360.57 1728 1357.77 1728ZM1351.17 1675H1331.87V1700.1H1351.17C1353.91 1700.1 1356.07 1699.87 1357.67 1699.4C1359.27 1698.87 1360.47 1698.2 1361.27 1697.4C1362.14 1696.53 1362.67 1695.57 1362.87 1694.5C1363.14 1693.37 1363.27 1692.2 1363.27 1691V1684.6C1363.27 1681.93 1362.51 1679.67 1360.97 1677.8C1359.44 1675.93 1356.17 1675 1351.17 1675ZM1357.87 1701.1H1331.87V1727H1357.77C1362.77 1727 1366.04 1726.2 1367.57 1724.6C1369.11 1722.93 1369.87 1720.73 1369.87 1718V1711.6C1369.87 1708.6 1369.11 1706.1 1367.57 1704.1C1366.11 1702.1 1362.87 1701.1 1357.87 1701.1ZM1433.73 1674V1675H1411.53C1408.73 1675 1406.5 1675.77 1404.83 1677.3C1403.17 1678.83 1402.33 1680.77 1402.33 1683.1V1691.3C1402.33 1693.63 1402.8 1695.27 1403.73 1696.2C1404.67 1697.13 1405.9 1697.73 1407.43 1698L1428.53 1702.3C1430.53 1702.7 1432.17 1703.57 1433.43 1704.9C1434.77 1706.23 1435.43 1708.63 1435.43 1712.1V1717.9C1435.43 1720.83 1434.43 1723.27 1432.43 1725.2C1430.43 1727.07 1427.73 1728 1424.33 1728H1399.43V1727H1424.33C1427.4 1727 1429.83 1726.17 1431.63 1724.5C1433.5 1722.77 1434.43 1720.57 1434.43 1717.9V1712.1C1434.43 1708.97 1433.87 1706.83 1432.73 1705.7C1431.67 1704.5 1430.2 1703.7 1428.33 1703.3L1407.23 1699C1405.5 1698.67 1404.07 1698 1402.93 1697C1401.87 1695.93 1401.33 1694.03 1401.33 1691.3V1683.1C1401.33 1680.43 1402.27 1678.27 1404.13 1676.6C1406 1674.87 1408.47 1674 1411.53 1674H1433.73Z" fill="#E6EBEE"/>
<path d="M1242.24 1814L1232.84 1844.4H1264.24L1254.84 1814C1254.31 1812.8 1253.71 1811.93 1253.04 1811.4C1252.51 1810.87 1251.84 1810.6 1251.04 1810.6H1246.04C1245.24 1810.6 1244.51 1810.87 1243.84 1811.4C1243.31 1811.93 1242.77 1812.8 1242.24 1814ZM1230.84 1908.8C1230.84 1911.33 1230.24 1913.2 1229.04 1914.4C1227.97 1915.47 1226.17 1916 1223.64 1916H1194.24C1191.71 1916 1189.84 1915.47 1188.64 1914.4C1187.57 1913.2 1187.04 1911.33 1187.04 1908.8V1856C1187.04 1852 1187.64 1847.4 1188.84 1842.2C1190.17 1837 1192.17 1830.93 1194.84 1824L1212.24 1778.6C1213.04 1776.33 1214.24 1774.67 1215.84 1773.6C1217.57 1772.53 1219.77 1772 1222.44 1772H1276.24C1278.77 1772 1280.84 1772.53 1282.44 1773.6C1284.17 1774.67 1285.44 1776.33 1286.24 1778.6L1303.64 1824C1306.31 1830.93 1308.24 1837 1309.44 1842.2C1310.77 1847.4 1311.44 1852 1311.44 1856V1908.8C1311.44 1911.33 1310.84 1913.2 1309.64 1914.4C1308.57 1915.47 1306.77 1916 1304.24 1916H1274.04C1271.37 1916 1269.37 1915.47 1268.04 1914.4C1266.84 1913.2 1266.24 1911.33 1266.24 1908.8V1880.8H1230.84V1908.8ZM1340.13 1916C1337.6 1916 1335.73 1915.47 1334.53 1914.4C1333.47 1913.2 1332.93 1911.33 1332.93 1908.8V1885C1332.93 1882.47 1333.47 1880.67 1334.53 1879.6C1335.73 1878.4 1337.6 1877.8 1340.13 1877.8H1359.93V1810.6H1340.13C1337.6 1810.6 1335.73 1810.07 1334.53 1809C1333.47 1807.8 1332.93 1805.93 1332.93 1803.4V1779.2C1332.93 1776.67 1333.47 1774.87 1334.53 1773.8C1335.73 1772.6 1337.6 1772 1340.13 1772H1425.33C1427.87 1772 1429.67 1772.6 1430.73 1773.8C1431.93 1774.87 1432.53 1776.67 1432.53 1779.2V1803.4C1432.53 1805.93 1431.93 1807.8 1430.73 1809C1429.67 1810.07 1427.87 1810.6 1425.33 1810.6H1405.93V1877.8H1425.33C1427.87 1877.8 1429.67 1878.4 1430.73 1879.6C1431.93 1880.67 1432.53 1882.47 1432.53 1885V1908.8C1432.53 1911.33 1431.93 1913.2 1430.73 1914.4C1429.67 1915.47 1427.87 1916 1425.33 1916H1340.13Z" fill="#E6EBEE"/>
<circle cx="1050.33" cy="1997" r="15" fill="#E6EBEE"/>
<circle cx="1570.33" cy="1997" r="15" fill="#E6EBEE"/>
<circle cx="1570.33" cy="1477" r="15" fill="#E6EBEE"/>
<circle cx="1050.33" cy="1477" r="15" fill="#E6EBEE"/>
<path d="M2105.65 1530.87C2105.18 1561.19 2098.49 1583.59 2085.59 1598.06C2072.7 1612.19 2052.59 1619.04 2025.26 1618.61L1703.3 1613.54L1704.31 1549.55L2042.27 1554.87C2046.6 1554.94 2048.8 1552.81 2048.87 1548.47L2051.04 1410.49C2051.11 1406.16 2048.98 1403.96 2044.65 1403.89L1706.69 1398.57L1707.7 1334.07L2029.66 1339.14C2056.99 1339.58 2076.88 1347.22 2089.31 1362.09C2101.74 1376.95 2107.73 1399.38 2107.25 1429.38L2105.65 1530.87Z" fill="#1F2428"/>
<path d="M515.292 1530.87C515.77 1561.19 522.457 1583.59 535.353 1598.06C548.244 1612.19 568.354 1619.04 595.684 1618.61L917.644 1613.54L916.636 1549.55L578.678 1554.87C574.346 1554.94 572.145 1552.81 572.077 1548.47L569.903 1410.49C569.835 1406.16 571.967 1403.96 576.3 1403.89L914.258 1398.57L913.242 1334.07L591.282 1339.14C563.952 1339.58 544.07 1347.22 531.636 1362.09C519.202 1376.95 513.221 1399.38 513.694 1429.38L515.292 1530.87Z" fill="#1F2428"/>
<path d="M2403.55 1126.57C2457.98 1176.16 2542.31 1172.23 2591.9 1117.79C2641.49 1063.35 2637.56 979.019 2583.12 929.431C2528.68 879.842 2444.35 883.774 2394.76 938.212C2345.18 992.65 2349.11 1076.98 2403.55 1126.57ZM2084.33 1477L2102.82 1493.84L2511.82 1044.84L2493.33 1028L2474.85 1011.16L2065.85 1460.16L2084.33 1477Z" fill="#1F2428"/>
<path d="M223.122 1827.43C168.684 1777.84 84.3533 1781.77 34.7648 1836.21C-14.8237 1890.65 -10.8923 1974.98 43.546 2024.57C97.9843 2074.16 182.315 2070.23 231.903 2015.79C281.492 1961.35 277.56 1877.02 223.122 1827.43ZM542.334 1477L523.852 1460.16L114.852 1909.16L133.334 1926L151.816 1942.84L560.816 1493.84L542.334 1477Z" fill="#1F2428"/>
<path d="M956.534 2723.76L810.844 2959.38L1097.82 2990.62L1006.24 2729.17L956.534 2723.76ZM1029.33 2286L1004.48 2283.29L953.829 2748.62L978.682 2751.32L1003.54 2754.03L1054.19 2288.71L1029.33 2286Z" fill="#1F2428"/>
<path d="M1702.13 2723.76L1847.82 2959.38L1560.84 2990.62L1652.43 2729.17L1702.13 2723.76ZM1629.33 2286L1654.19 2283.29L1704.84 2748.62L1679.99 2751.32L1655.13 2754.03L1604.48 2288.71L1629.33 2286Z" fill="#1F2428"/>
</svg>
