<svg width="1167" height="707" viewBox="0 0 1167 707" fill="none" xmlns="http://www.w3.org/2000/svg">
<path d="M390.5 503.125V460.375H438.75V310.75C438.75 281.181 448.802 254.997 468.906 232.197C489.01 209.041 515.146 193.9 547.313 186.775V171.812C547.313 162.906 550.73 155.425 557.566 149.369C564.803 142.956 573.448 139.75 583.5 139.75C593.552 139.75 601.996 142.956 608.831 149.369C616.069 155.425 619.688 162.906 619.688 171.812V186.775C651.854 193.9 677.99 209.041 698.094 232.197C718.198 254.997 728.25 281.181 728.25 310.75V460.375H776.5V503.125H390.5ZM583.5 567.25C570.231 567.25 558.772 563.153 549.122 554.959C539.874 546.409 535.25 536.256 535.25 524.5H631.75C631.75 536.256 626.925 546.409 617.275 554.959C608.027 563.153 596.769 567.25 583.5 567.25ZM487 460.375H680V310.75C680 287.237 670.551 267.109 651.653 250.366C632.755 233.622 610.038 225.25 583.5 225.25C556.963 225.25 534.245 233.622 515.347 250.366C496.449 267.109 487 287.237 487 310.75V460.375Z" fill="#E6EBEE"/>
</svg>
