<svg width="520" height="520" viewBox="0 0 520 520" fill="none" xmlns="http://www.w3.org/2000/svg">
<rect x="5" y="5" width="510" height="510" rx="45" stroke="#E6EBEE" stroke-width="10"/>
<path d="M167.798 85.6L138.498 123.2C138.031 123.8 137.665 124.3 137.398 124.7C137.198 125.1 137.098 125.633 137.098 126.3V127.7C137.098 128.633 137.298 129.267 137.698 129.6C138.165 129.867 138.665 130 139.198 130H172.898V131H139.198C138.131 131 137.331 130.733 136.798 130.2C136.331 129.667 136.098 128.833 136.098 127.7V126.1C136.098 125.367 136.265 124.733 136.598 124.2C136.931 123.6 137.331 123 137.798 122.4L167.098 84.8C167.565 84.2 167.898 83.7 168.098 83.3C168.365 82.9 168.498 82.3667 168.498 81.7V80.3C168.498 79.3667 168.265 78.7667 167.798 78.5C167.398 78.1667 166.931 78 166.398 78H135.898V77H166.398C167.465 77 168.231 77.2667 168.698 77.8C169.231 78.3333 169.498 79.1667 169.498 80.3V81.9C169.498 82.6333 169.331 83.3 168.998 83.9C168.665 84.4333 168.265 85 167.798 85.6ZM238.014 130V131H204.314V77H238.014V78H205.314V103.1H229.914V104.1H205.314V130H238.014ZM292.443 78H270.643V106.9H292.443C296.577 106.9 299.343 105.9 300.743 103.9C302.143 101.9 302.843 99.0667 302.843 95.4V88.4C302.843 85.3333 301.977 82.8333 300.243 80.9C298.577 78.9667 295.977 78 292.443 78ZM270.643 131H269.643V77H292.443C296.31 77 299.177 78.1 301.043 80.3C302.91 82.4333 303.843 85.1333 303.843 88.4V95.3C303.843 98.3667 303.443 100.9 302.643 102.9C301.843 104.833 300.243 106.167 297.843 106.9H298.943C303.01 106.9 306.043 107.833 308.043 109.7C310.043 111.5 311.043 114.133 311.043 117.6V131H310.043V117.6C310.043 114.333 309.143 111.9 307.343 110.3C305.543 108.633 302.743 107.8 298.943 107.8H270.643V131ZM382.771 118.8C382.771 122.8 381.338 126.067 378.471 128.6C375.605 131.067 370.271 132.3 362.471 132.3C354.671 132.3 349.371 131.067 346.571 128.6C343.771 126.067 342.371 122.8 342.371 118.8V89.3C342.371 85.3 343.771 82.0667 346.571 79.6C349.371 77.0667 354.671 75.8 362.471 75.8C370.271 75.8 375.605 77.0667 378.471 79.6C381.338 82.0667 382.771 85.3 382.771 89.3V118.8ZM343.371 118.8C343.371 122.533 344.705 125.567 347.371 127.9C350.038 130.167 355.071 131.3 362.471 131.3C369.871 131.3 374.938 130.167 377.671 127.9C380.405 125.567 381.771 122.533 381.771 118.8V89.3C381.771 85.5667 380.405 82.5667 377.671 80.3C374.938 77.9667 369.871 76.8 362.471 76.8C355.071 76.8 350.038 77.9667 347.371 80.3C344.705 82.5667 343.371 85.5667 343.371 89.3V118.8ZM137.761 251V197H138.761V250H173.561V230.3H174.561V251H137.761ZM206.492 229.7V232.8H245.492V229.7C245.492 227.9 245.326 226.233 244.992 224.7C244.726 223.167 244.359 221.733 243.892 220.4L236.992 204.1C236.259 202.367 235.492 200.933 234.692 199.8C233.892 198.6 232.559 198 230.692 198H220.892C218.892 198 217.492 198.6 216.692 199.8C215.892 200.933 215.159 202.333 214.492 204L208.092 220.4C207.626 221.733 207.226 223.167 206.892 224.7C206.626 226.233 206.492 227.9 206.492 229.7ZM245.492 251V233.8H206.492V251H205.492V229.7C205.492 227.833 205.626 226.133 205.892 224.6C206.226 223 206.659 221.467 207.192 220L213.592 203.6C214.326 201.733 215.159 200.167 216.092 198.9C217.026 197.633 218.626 197 220.892 197H230.692C232.892 197 234.426 197.633 235.292 198.9C236.226 200.167 237.092 201.767 237.892 203.7L244.792 220C245.326 221.467 245.726 223 245.992 224.6C246.326 226.133 246.492 227.833 246.492 229.7V251H245.492ZM307.439 251H280.539V197H300.839C303.572 197 305.806 197.3 307.539 197.9C309.272 198.433 310.606 199.2 311.539 200.2C312.472 201.133 313.106 202.233 313.439 203.5C313.772 204.767 313.939 206.133 313.939 207.6V214C313.939 216 313.572 217.833 312.839 219.5C312.172 221.167 310.406 222.367 307.539 223.1C310.272 223.1 312.506 223.4 314.239 224C315.972 224.533 317.306 225.333 318.239 226.4C319.172 227.4 319.772 228.6 320.039 230C320.372 231.4 320.539 232.933 320.539 234.6V241C320.539 242.467 320.372 243.833 320.039 245.1C319.706 246.3 319.072 247.333 318.139 248.2C317.272 249.067 315.972 249.767 314.239 250.3C312.506 250.767 310.239 251 307.439 251ZM300.839 198H281.539V223.1H300.839C303.572 223.1 305.739 222.867 307.339 222.4C308.939 221.867 310.139 221.2 310.939 220.4C311.806 219.533 312.339 218.567 312.539 217.5C312.806 216.367 312.939 215.2 312.939 214V207.6C312.939 204.933 312.172 202.667 310.639 200.8C309.106 198.933 305.839 198 300.839 198ZM307.539 224.1H281.539V250H307.439C312.439 250 315.706 249.2 317.239 247.6C318.772 245.933 319.539 243.733 319.539 241V234.6C319.539 231.6 318.772 229.1 317.239 227.1C315.772 225.1 312.539 224.1 307.539 224.1ZM383.4 197V198H361.2C358.4 198 356.167 198.767 354.5 200.3C352.833 201.833 352 203.767 352 206.1V214.3C352 216.633 352.467 218.267 353.4 219.2C354.333 220.133 355.567 220.733 357.1 221L378.2 225.3C380.2 225.7 381.833 226.567 383.1 227.9C384.433 229.233 385.1 231.633 385.1 235.1V240.9C385.1 243.833 384.1 246.267 382.1 248.2C380.1 250.067 377.4 251 374 251H349.1V250H374C377.067 250 379.5 249.167 381.3 247.5C383.167 245.767 384.1 243.567 384.1 240.9V235.1C384.1 231.967 383.533 229.833 382.4 228.7C381.333 227.5 379.867 226.7 378 226.3L356.9 222C355.167 221.667 353.733 221 352.6 220C351.533 218.933 351 217.033 351 214.3V206.1C351 203.433 351.933 201.267 353.8 199.6C355.667 197.867 358.133 197 361.2 197H383.4Z" fill="#E6EBEE"/>
<path opacity="0.5" d="M191.906 337L182.506 367.4H213.906L204.506 337C203.973 335.8 203.373 334.933 202.706 334.4C202.173 333.867 201.506 333.6 200.706 333.6H195.706C194.906 333.6 194.173 333.867 193.506 334.4C192.973 334.933 192.44 335.8 191.906 337ZM180.506 431.8C180.506 434.333 179.906 436.2 178.706 437.4C177.64 438.467 175.84 439 173.306 439H143.906C141.373 439 139.506 438.467 138.306 437.4C137.24 436.2 136.706 434.333 136.706 431.8V379C136.706 375 137.306 370.4 138.506 365.2C139.84 360 141.84 353.933 144.506 347L161.906 301.6C162.706 299.333 163.906 297.667 165.506 296.6C167.24 295.533 169.44 295 172.106 295H225.906C228.44 295 230.506 295.533 232.106 296.6C233.84 297.667 235.106 299.333 235.906 301.6L253.306 347C255.973 353.933 257.906 360 259.106 365.2C260.44 370.4 261.106 375 261.106 379V431.8C261.106 434.333 260.506 436.2 259.306 437.4C258.24 438.467 256.44 439 253.906 439H223.706C221.04 439 219.04 438.467 217.706 437.4C216.506 436.2 215.906 434.333 215.906 431.8V403.8H180.506V431.8ZM289.8 439C287.267 439 285.4 438.467 284.2 437.4C283.133 436.2 282.6 434.333 282.6 431.8V408C282.6 405.467 283.133 403.667 284.2 402.6C285.4 401.4 287.267 400.8 289.8 400.8H309.6V333.6H289.8C287.267 333.6 285.4 333.067 284.2 332C283.133 330.8 282.6 328.933 282.6 326.4V302.2C282.6 299.667 283.133 297.867 284.2 296.8C285.4 295.6 287.267 295 289.8 295H375C377.533 295 379.333 295.6 380.4 296.8C381.6 297.867 382.2 299.667 382.2 302.2V326.4C382.2 328.933 381.6 330.8 380.4 332C379.333 333.067 377.533 333.6 375 333.6H355.6V400.8H375C377.533 400.8 379.333 401.4 380.4 402.6C381.6 403.667 382.2 405.467 382.2 408V431.8C382.2 434.333 381.6 436.2 380.4 437.4C379.333 438.467 377.533 439 375 439H289.8Z" fill="#E6EBEE"/>
</svg>
