<svg width="528" height="528" viewBox="0 0 528 528" fill="none" xmlns="http://www.w3.org/2000/svg">
<g filter="url(#filter0_d_7_112)">
<rect x="4" width="520" height="520" rx="50" fill="#2F4E6B" fill-opacity="0.5" shape-rendering="crispEdges"/>
<rect x="9" y="5" width="510" height="510" rx="45" stroke="#E6EBEE" stroke-width="10" shape-rendering="crispEdges"/>
</g>
<path d="M171.798 85.6L142.498 123.2C142.031 123.8 141.665 124.3 141.398 124.7C141.198 125.1 141.098 125.633 141.098 126.3V127.7C141.098 128.633 141.298 129.267 141.698 129.6C142.165 129.867 142.665 130 143.198 130H176.898V131H143.198C142.131 131 141.331 130.733 140.798 130.2C140.331 129.667 140.098 128.833 140.098 127.7V126.1C140.098 125.367 140.265 124.733 140.598 124.2C140.931 123.6 141.331 123 141.798 122.4L171.098 84.8C171.565 84.2 171.898 83.7 172.098 83.3C172.365 82.9 172.498 82.3667 172.498 81.7V80.3C172.498 79.3667 172.265 78.7667 171.798 78.5C171.398 78.1667 170.931 78 170.398 78H139.898V77H170.398C171.465 77 172.231 77.2667 172.698 77.8C173.231 78.3333 173.498 79.1667 173.498 80.3V81.9C173.498 82.6333 173.331 83.3 172.998 83.9C172.665 84.4333 172.265 85 171.798 85.6ZM242.014 130V131H208.314V77H242.014V78H209.314V103.1H233.914V104.1H209.314V130H242.014ZM296.443 78H274.643V106.9H296.443C300.577 106.9 303.343 105.9 304.743 103.9C306.143 101.9 306.843 99.0667 306.843 95.4V88.4C306.843 85.3333 305.977 82.8333 304.243 80.9C302.577 78.9667 299.977 78 296.443 78ZM274.643 131H273.643V77H296.443C300.31 77 303.177 78.1 305.043 80.3C306.91 82.4333 307.843 85.1333 307.843 88.4V95.3C307.843 98.3667 307.443 100.9 306.643 102.9C305.843 104.833 304.243 106.167 301.843 106.9H302.943C307.01 106.9 310.043 107.833 312.043 109.7C314.043 111.5 315.043 114.133 315.043 117.6V131H314.043V117.6C314.043 114.333 313.143 111.9 311.343 110.3C309.543 108.633 306.743 107.8 302.943 107.8H274.643V131ZM386.771 118.8C386.771 122.8 385.338 126.067 382.471 128.6C379.605 131.067 374.271 132.3 366.471 132.3C358.671 132.3 353.371 131.067 350.571 128.6C347.771 126.067 346.371 122.8 346.371 118.8V89.3C346.371 85.3 347.771 82.0667 350.571 79.6C353.371 77.0667 358.671 75.8 366.471 75.8C374.271 75.8 379.605 77.0667 382.471 79.6C385.338 82.0667 386.771 85.3 386.771 89.3V118.8ZM347.371 118.8C347.371 122.533 348.705 125.567 351.371 127.9C354.038 130.167 359.071 131.3 366.471 131.3C373.871 131.3 378.938 130.167 381.671 127.9C384.405 125.567 385.771 122.533 385.771 118.8V89.3C385.771 85.5667 384.405 82.5667 381.671 80.3C378.938 77.9667 373.871 76.8 366.471 76.8C359.071 76.8 354.038 77.9667 351.371 80.3C348.705 82.5667 347.371 85.5667 347.371 89.3V118.8ZM141.761 251V197H142.761V250H177.561V230.3H178.561V251H141.761ZM210.492 229.7V232.8H249.492V229.7C249.492 227.9 249.326 226.233 248.992 224.7C248.726 223.167 248.359 221.733 247.892 220.4L240.992 204.1C240.259 202.367 239.492 200.933 238.692 199.8C237.892 198.6 236.559 198 234.692 198H224.892C222.892 198 221.492 198.6 220.692 199.8C219.892 200.933 219.159 202.333 218.492 204L212.092 220.4C211.626 221.733 211.226 223.167 210.892 224.7C210.626 226.233 210.492 227.9 210.492 229.7ZM249.492 251V233.8H210.492V251H209.492V229.7C209.492 227.833 209.626 226.133 209.892 224.6C210.226 223 210.659 221.467 211.192 220L217.592 203.6C218.326 201.733 219.159 200.167 220.092 198.9C221.026 197.633 222.626 197 224.892 197H234.692C236.892 197 238.426 197.633 239.292 198.9C240.226 200.167 241.092 201.767 241.892 203.7L248.792 220C249.326 221.467 249.726 223 249.992 224.6C250.326 226.133 250.492 227.833 250.492 229.7V251H249.492ZM311.439 251H284.539V197H304.839C307.572 197 309.806 197.3 311.539 197.9C313.272 198.433 314.606 199.2 315.539 200.2C316.472 201.133 317.106 202.233 317.439 203.5C317.772 204.767 317.939 206.133 317.939 207.6V214C317.939 216 317.572 217.833 316.839 219.5C316.172 221.167 314.406 222.367 311.539 223.1C314.272 223.1 316.506 223.4 318.239 224C319.972 224.533 321.306 225.333 322.239 226.4C323.172 227.4 323.772 228.6 324.039 230C324.372 231.4 324.539 232.933 324.539 234.6V241C324.539 242.467 324.372 243.833 324.039 245.1C323.706 246.3 323.072 247.333 322.139 248.2C321.272 249.067 319.972 249.767 318.239 250.3C316.506 250.767 314.239 251 311.439 251ZM304.839 198H285.539V223.1H304.839C307.572 223.1 309.739 222.867 311.339 222.4C312.939 221.867 314.139 221.2 314.939 220.4C315.806 219.533 316.339 218.567 316.539 217.5C316.806 216.367 316.939 215.2 316.939 214V207.6C316.939 204.933 316.172 202.667 314.639 200.8C313.106 198.933 309.839 198 304.839 198ZM311.539 224.1H285.539V250H311.439C316.439 250 319.706 249.2 321.239 247.6C322.772 245.933 323.539 243.733 323.539 241V234.6C323.539 231.6 322.772 229.1 321.239 227.1C319.772 225.1 316.539 224.1 311.539 224.1ZM387.4 197V198H365.2C362.4 198 360.167 198.767 358.5 200.3C356.833 201.833 356 203.767 356 206.1V214.3C356 216.633 356.467 218.267 357.4 219.2C358.333 220.133 359.567 220.733 361.1 221L382.2 225.3C384.2 225.7 385.833 226.567 387.1 227.9C388.433 229.233 389.1 231.633 389.1 235.1V240.9C389.1 243.833 388.1 246.267 386.1 248.2C384.1 250.067 381.4 251 378 251H353.1V250H378C381.067 250 383.5 249.167 385.3 247.5C387.167 245.767 388.1 243.567 388.1 240.9V235.1C388.1 231.967 387.533 229.833 386.4 228.7C385.333 227.5 383.867 226.7 382 226.3L360.9 222C359.167 221.667 357.733 221 356.6 220C355.533 218.933 355 217.033 355 214.3V206.1C355 203.433 355.933 201.267 357.8 199.6C359.667 197.867 362.133 197 365.2 197H387.4Z" fill="#E6EBEE"/>
<path d="M195.906 337L186.506 367.4H217.906L208.506 337C207.973 335.8 207.373 334.933 206.706 334.4C206.173 333.867 205.506 333.6 204.706 333.6H199.706C198.906 333.6 198.173 333.867 197.506 334.4C196.973 334.933 196.44 335.8 195.906 337ZM184.506 431.8C184.506 434.333 183.906 436.2 182.706 437.4C181.64 438.467 179.84 439 177.306 439H147.906C145.373 439 143.506 438.467 142.306 437.4C141.24 436.2 140.706 434.333 140.706 431.8V379C140.706 375 141.306 370.4 142.506 365.2C143.84 360 145.84 353.933 148.506 347L165.906 301.6C166.706 299.333 167.906 297.667 169.506 296.6C171.24 295.533 173.44 295 176.106 295H229.906C232.44 295 234.506 295.533 236.106 296.6C237.84 297.667 239.106 299.333 239.906 301.6L257.306 347C259.973 353.933 261.906 360 263.106 365.2C264.44 370.4 265.106 375 265.106 379V431.8C265.106 434.333 264.506 436.2 263.306 437.4C262.24 438.467 260.44 439 257.906 439H227.706C225.04 439 223.04 438.467 221.706 437.4C220.506 436.2 219.906 434.333 219.906 431.8V403.8H184.506V431.8ZM293.8 439C291.267 439 289.4 438.467 288.2 437.4C287.133 436.2 286.6 434.333 286.6 431.8V408C286.6 405.467 287.133 403.667 288.2 402.6C289.4 401.4 291.267 400.8 293.8 400.8H313.6V333.6H293.8C291.267 333.6 289.4 333.067 288.2 332C287.133 330.8 286.6 328.933 286.6 326.4V302.2C286.6 299.667 287.133 297.867 288.2 296.8C289.4 295.6 291.267 295 293.8 295H379C381.533 295 383.333 295.6 384.4 296.8C385.6 297.867 386.2 299.667 386.2 302.2V326.4C386.2 328.933 385.6 330.8 384.4 332C383.333 333.067 381.533 333.6 379 333.6H359.6V400.8H379C381.533 400.8 383.333 401.4 384.4 402.6C385.6 403.667 386.2 405.467 386.2 408V431.8C386.2 434.333 385.6 436.2 384.4 437.4C383.333 438.467 381.533 439 379 439H293.8Z" fill="#E6EBEE"/>
<defs>
<filter id="filter0_d_7_112" x="0" y="0" width="528" height="528" filterUnits="userSpaceOnUse" color-interpolation-filters="sRGB">
<feFlood flood-opacity="0" result="BackgroundImageFix"/>
<feColorMatrix in="SourceAlpha" type="matrix" values="0 0 0 0 0 0 0 0 0 0 0 0 0 0 0 0 0 0 127 0" result="hardAlpha"/>
<feOffset dy="4"/>
<feGaussianBlur stdDeviation="2"/>
<feComposite in2="hardAlpha" operator="out"/>
<feColorMatrix type="matrix" values="0 0 0 0 0 0 0 0 0 0 0 0 0 0 0 0 0 0 0.25 0"/>
<feBlend mode="normal" in2="BackgroundImageFix" result="effect1_dropShadow_7_112"/>
<feBlend mode="normal" in="SourceGraphic" in2="effect1_dropShadow_7_112" result="shape"/>
</filter>
</defs>
</svg>
