<svg width="655" height="655" viewBox="0 0 655 655" fill="none" xmlns="http://www.w3.org/2000/svg">
<rect x="9.47969" y="4.81862" width="640" height="640" rx="25" transform="rotate(0.417282 9.47969 4.81862)" fill="#1F2428" stroke="#E6EBEE" stroke-width="10"/>
<rect x="72.1407" y="72.1407" width="510" height="510" rx="45" stroke="#E6EBEE" stroke-width="10"/>
<path d="M234.939 152.741L205.639 190.341C205.172 190.941 204.805 191.441 204.539 191.841C204.339 192.241 204.239 192.774 204.239 193.441V194.841C204.239 195.774 204.439 196.407 204.839 196.741C205.305 197.007 205.805 197.141 206.339 197.141H240.039V198.141H206.339C205.272 198.141 204.472 197.874 203.939 197.341C203.472 196.807 203.239 195.974 203.239 194.841V193.241C203.239 192.507 203.405 191.874 203.739 191.341C204.072 190.741 204.472 190.141 204.939 189.541L234.239 151.941C234.705 151.341 235.039 150.841 235.239 150.441C235.505 150.041 235.639 149.507 235.639 148.841V147.441C235.639 146.507 235.405 145.907 234.939 145.641C234.539 145.307 234.072 145.141 233.539 145.141H203.039V144.141H233.539C234.605 144.141 235.372 144.407 235.839 144.941C236.372 145.474 236.639 146.307 236.639 147.441V149.041C236.639 149.774 236.472 150.441 236.139 151.041C235.805 151.574 235.405 152.141 234.939 152.741ZM305.154 197.141V198.141H271.454V144.141H305.154V145.141H272.454V170.241H297.054V171.241H272.454V197.141H305.154ZM359.584 145.141H337.784V174.041H359.584C363.717 174.041 366.484 173.041 367.884 171.041C369.284 169.041 369.984 166.207 369.984 162.541V155.541C369.984 152.474 369.117 149.974 367.384 148.041C365.717 146.107 363.117 145.141 359.584 145.141ZM337.784 198.141H336.784V144.141H359.584C363.451 144.141 366.317 145.241 368.184 147.441C370.051 149.574 370.984 152.274 370.984 155.541V162.441C370.984 165.507 370.584 168.041 369.784 170.041C368.984 171.974 367.384 173.307 364.984 174.041H366.084C370.151 174.041 373.184 174.974 375.184 176.841C377.184 178.641 378.184 181.274 378.184 184.741V198.141H377.184V184.741C377.184 181.474 376.284 179.041 374.484 177.441C372.684 175.774 369.884 174.941 366.084 174.941H337.784V198.141ZM449.912 185.941C449.912 189.941 448.479 193.207 445.612 195.741C442.746 198.207 437.412 199.441 429.612 199.441C421.812 199.441 416.512 198.207 413.712 195.741C410.912 193.207 409.512 189.941 409.512 185.941V156.441C409.512 152.441 410.912 149.207 413.712 146.741C416.512 144.207 421.812 142.941 429.612 142.941C437.412 142.941 442.746 144.207 445.612 146.741C448.479 149.207 449.912 152.441 449.912 156.441V185.941ZM410.512 185.941C410.512 189.674 411.846 192.707 414.512 195.041C417.179 197.307 422.212 198.441 429.612 198.441C437.012 198.441 442.079 197.307 444.812 195.041C447.546 192.707 448.912 189.674 448.912 185.941V156.441C448.912 152.707 447.546 149.707 444.812 147.441C442.079 145.107 437.012 143.941 429.612 143.941C422.212 143.941 417.179 145.107 414.512 147.441C411.846 149.707 410.512 152.707 410.512 156.441V185.941ZM204.902 318.141V264.141H205.902V317.141H240.702V297.441H241.702V318.141H204.902ZM273.633 296.841V299.941H312.633V296.841C312.633 295.041 312.466 293.374 312.133 291.841C311.866 290.307 311.5 288.874 311.033 287.541L304.133 271.241C303.4 269.507 302.633 268.074 301.833 266.941C301.033 265.741 299.7 265.141 297.833 265.141H288.033C286.033 265.141 284.633 265.741 283.833 266.941C283.033 268.074 282.3 269.474 281.633 271.141L275.233 287.541C274.766 288.874 274.366 290.307 274.033 291.841C273.766 293.374 273.633 295.041 273.633 296.841ZM312.633 318.141V300.941H273.633V318.141H272.633V296.841C272.633 294.974 272.766 293.274 273.033 291.741C273.366 290.141 273.8 288.607 274.333 287.141L280.733 270.741C281.466 268.874 282.3 267.307 283.233 266.041C284.166 264.774 285.766 264.141 288.033 264.141H297.833C300.033 264.141 301.566 264.774 302.433 266.041C303.366 267.307 304.233 268.907 305.033 270.841L311.933 287.141C312.466 288.607 312.866 290.141 313.133 291.741C313.466 293.274 313.633 294.974 313.633 296.841V318.141H312.633ZM374.58 318.141H347.68V264.141H367.98C370.713 264.141 372.946 264.441 374.68 265.041C376.413 265.574 377.746 266.341 378.68 267.341C379.613 268.274 380.246 269.374 380.58 270.641C380.913 271.907 381.08 273.274 381.08 274.741V281.141C381.08 283.141 380.713 284.974 379.98 286.641C379.313 288.307 377.546 289.507 374.68 290.241C377.413 290.241 379.646 290.541 381.38 291.141C383.113 291.674 384.446 292.474 385.38 293.541C386.313 294.541 386.913 295.741 387.18 297.141C387.513 298.541 387.68 300.074 387.68 301.741V308.141C387.68 309.607 387.513 310.974 387.18 312.241C386.846 313.441 386.213 314.474 385.28 315.341C384.413 316.207 383.113 316.907 381.38 317.441C379.646 317.907 377.38 318.141 374.58 318.141ZM367.98 265.141H348.68V290.241H367.98C370.713 290.241 372.88 290.007 374.48 289.541C376.08 289.007 377.28 288.341 378.08 287.541C378.946 286.674 379.48 285.707 379.68 284.641C379.946 283.507 380.08 282.341 380.08 281.141V274.741C380.08 272.074 379.313 269.807 377.78 267.941C376.246 266.074 372.98 265.141 367.98 265.141ZM374.68 291.241H348.68V317.141H374.58C379.58 317.141 382.846 316.341 384.38 314.741C385.913 313.074 386.68 310.874 386.68 308.141V301.741C386.68 298.741 385.913 296.241 384.38 294.241C382.913 292.241 379.68 291.241 374.68 291.241ZM450.541 264.141V265.141H428.341C425.541 265.141 423.307 265.907 421.641 267.441C419.974 268.974 419.141 270.907 419.141 273.241V281.441C419.141 283.774 419.607 285.407 420.541 286.341C421.474 287.274 422.707 287.874 424.241 288.141L445.341 292.441C447.341 292.841 448.974 293.707 450.241 295.041C451.574 296.374 452.241 298.774 452.241 302.241V308.041C452.241 310.974 451.241 313.407 449.241 315.341C447.241 317.207 444.541 318.141 441.141 318.141H416.241V317.141H441.141C444.207 317.141 446.641 316.307 448.441 314.641C450.307 312.907 451.241 310.707 451.241 308.041V302.241C451.241 299.107 450.674 296.974 449.541 295.841C448.474 294.641 447.007 293.841 445.141 293.441L424.041 289.141C422.307 288.807 420.874 288.141 419.741 287.141C418.674 286.074 418.141 284.174 418.141 281.441V273.241C418.141 270.574 419.074 268.407 420.941 266.741C422.807 265.007 425.274 264.141 428.341 264.141H450.541Z" fill="#E6EBEE"/>
<path d="M259.047 404.141L249.647 434.541H281.047L271.647 404.141C271.114 402.941 270.514 402.074 269.847 401.541C269.314 401.007 268.647 400.741 267.847 400.741H262.847C262.047 400.741 261.314 401.007 260.647 401.541C260.114 402.074 259.58 402.941 259.047 404.141ZM247.647 498.941C247.647 501.474 247.047 503.341 245.847 504.541C244.78 505.607 242.98 506.141 240.447 506.141H211.047C208.514 506.141 206.647 505.607 205.447 504.541C204.38 503.341 203.847 501.474 203.847 498.941V446.141C203.847 442.141 204.447 437.541 205.647 432.341C206.98 427.141 208.98 421.074 211.647 414.141L229.047 368.741C229.847 366.474 231.047 364.807 232.647 363.741C234.38 362.674 236.58 362.141 239.247 362.141H293.047C295.58 362.141 297.647 362.674 299.247 363.741C300.98 364.807 302.247 366.474 303.047 368.741L320.447 414.141C323.114 421.074 325.047 427.141 326.247 432.341C327.58 437.541 328.247 442.141 328.247 446.141V498.941C328.247 501.474 327.647 503.341 326.447 504.541C325.38 505.607 323.58 506.141 321.047 506.141H290.847C288.18 506.141 286.18 505.607 284.847 504.541C283.647 503.341 283.047 501.474 283.047 498.941V470.941H247.647V498.941ZM356.941 506.141C354.407 506.141 352.541 505.607 351.341 504.541C350.274 503.341 349.741 501.474 349.741 498.941V475.141C349.741 472.607 350.274 470.807 351.341 469.741C352.541 468.541 354.407 467.941 356.941 467.941H376.741V400.741H356.941C354.407 400.741 352.541 400.207 351.341 399.141C350.274 397.941 349.741 396.074 349.741 393.541V369.341C349.741 366.807 350.274 365.007 351.341 363.941C352.541 362.741 354.407 362.141 356.941 362.141H442.141C444.674 362.141 446.474 362.741 447.541 363.941C448.741 365.007 449.341 366.807 449.341 369.341V393.541C449.341 396.074 448.741 397.941 447.541 399.141C446.474 400.207 444.674 400.741 442.141 400.741H422.741V467.941H442.141C444.674 467.941 446.474 468.541 447.541 469.741C448.741 470.807 449.341 472.607 449.341 475.141V498.941C449.341 501.474 448.741 503.341 447.541 504.541C446.474 505.607 444.674 506.141 442.141 506.141H356.941Z" fill="#E6EBEE"/>
<circle cx="67.1407" cy="587.141" r="15" fill="#E6EBEE"/>
<circle cx="587.141" cy="587.141" r="15" fill="#E6EBEE"/>
<circle cx="587.141" cy="67.1407" r="15" fill="#E6EBEE"/>
<circle cx="67.1407" cy="67.1407" r="15" fill="#E6EBEE"/>
</svg>
